<svg xmlns="http://www.w3.org/2000/svg" viewBox="0 0 256 256">
	<linearGradient id="a" x1="12" x2="248" y1="248" y2="12"
		gradientTransform="matrix(1 0 0 -1 0 258)" gradientUnits="userSpaceOnUse">
		<stop offset="0" stop-color="#5e72e4" />
		<stop offset="1" stop-color="#778aff" />
	</linearGradient>
	<path fill="url(#a)" fill-rule="evenodd"
		d="M36.4.2h183.8c19.7 0 35.7 16 35.7 35.7v183.8c0 19.7-16 35.7-35.7 35.7H36.4c-19.7 0-35.7-16-35.7-35.7V35.9C.7 16.2 16.7.2 36.4.2z"
		clip-rule="evenodd" />
	<path fill="#fff" transform="translate(0,2)"
		d="M128.3 45.4c-46.7 0-84.4 37.8-84.4 84.4 0 32.2 18.1 60.2 44.6 74.4 6.8 3.7 15.3-.2 17.2-7.7l4.3-17.6c1.5-6.2-1-12.6-6.1-16.4-10-7.4-16.4-19.3-16.4-32.7 0-22.5 18.3-40.7 40.7-40.7 22.5 0 40.7 18.3 40.7 40.7 0 13.4-6.4 25.2-16.4 32.7-5.1 3.8-7.6 10.2-6.1 16.5l4.4 17.6c1.9 7.5 10.3 11.4 17.2 7.7 26.6-14.2 44.6-42.2 44.6-74.5.2-46.5-37.7-84.4-84.3-84.4z" />
	<circle cx="128" cy="132" r="18" fill="#fff" />
</svg>
